<svg width="107" height="107" viewBox="0 0 107 107" fill="none" xmlns="http://www.w3.org/2000/svg">
<circle cx="53.5" cy="53.5" r="48.5" fill="white" stroke="#E3E3E3" stroke-width="9.88034"/>
<path d="M5.40674 47.232C4.13273 57.0072 5.86772 66.9385 10.3805 75.7028C14.8934 84.467 21.9698 91.648 30.6668 96.289C39.3639 100.93 49.2687 102.81 59.0616 101.68C68.8545 100.55 78.0703 96.4619 85.4813 89.9615C92.8923 83.4612 98.1466 74.8568 100.544 65.2949C102.941 55.733 102.368 45.6675 98.9004 36.4396C95.4328 27.2118 89.2355 19.2597 81.1343 13.6428C73.0332 8.02602 63.4127 5.01118 53.5549 5.00003L53.5 53.5L5.40674 47.232Z" fill="white" stroke="#0FB301" stroke-width="9.46717"/>
<path d="M9.04772 72.897C12.5374 80.8943 18.1199 87.8021 25.2068 92.8922C32.2938 97.9824 40.6227 101.066 49.3156 101.819C58.0086 102.572 66.7436 100.966 74.6001 97.1696C82.4566 93.3735 89.1435 87.5283 93.956 80.25C98.7685 72.9716 101.528 64.5298 101.945 55.8143C102.361 47.0987 100.419 38.4322 96.3217 30.7283C92.2249 23.0244 86.1257 16.5683 78.6668 12.0406C71.208 7.51292 62.6658 5.08128 53.9407 5.002L53.5 53.5L9.04772 72.897Z" fill="white" stroke="#2384E5" stroke-width="9.88034"/>
<circle cx="53.4989" cy="53.5002" r="43.5256" fill="white"/>
<path d="M28.9042 56.4133V53.322L39.8475 36.0354H42.2834V40.5858H40.7378L32.9106 52.9757V53.1736H47.9096V56.4133H28.9042ZM40.9109 61.3594V55.4735L40.9356 54.0639V36.0354H44.5586V61.3594H40.9109ZM53.7522 61.5943C53.0762 61.5943 52.4951 61.3553 52.0087 60.8771C51.5223 60.3908 51.2791 59.8055 51.2791 59.1213C51.2791 58.4453 51.5223 57.8683 52.0087 57.3901C52.4951 56.9038 53.0762 56.6606 53.7522 56.6606C54.4282 56.6606 55.0093 56.9038 55.4957 57.3901C55.9821 57.8683 56.2252 58.4453 56.2252 59.1213C56.2252 59.5747 56.1098 59.991 55.879 60.3702C55.6564 60.7411 55.3597 61.0379 54.9887 61.2605C54.6178 61.483 54.2056 61.5943 53.7522 61.5943ZM60.5964 56.4133V53.322L71.5396 36.0354H73.9755V40.5858H72.4299L64.6027 52.9757V53.1736H79.6017V56.4133H60.5964ZM72.603 61.3594V55.4735L72.6277 54.0639V36.0354H76.2507V61.3594H72.603Z" fill="#707070"/>
<path d="M42.5398 73.6364C42.5398 74.5682 42.3693 75.3693 42.0284 76.0398C41.6875 76.7074 41.2202 77.2216 40.6264 77.5824C40.0355 77.9403 39.3636 78.1193 38.6108 78.1193C37.8551 78.1193 37.1804 77.9403 36.5866 77.5824C35.9957 77.2216 35.5298 76.706 35.1889 76.0355C34.848 75.3651 34.6776 74.5653 34.6776 73.6364C34.6776 72.7045 34.848 71.9048 35.1889 71.2372C35.5298 70.5668 35.9957 70.0526 36.5866 69.6946C37.1804 69.3338 37.8551 69.1534 38.6108 69.1534C39.3636 69.1534 40.0355 69.3338 40.6264 69.6946C41.2202 70.0526 41.6875 70.5668 42.0284 71.2372C42.3693 71.9048 42.5398 72.7045 42.5398 73.6364ZM41.2358 73.6364C41.2358 72.9261 41.1207 72.3281 40.8906 71.8423C40.6634 71.3537 40.3509 70.9844 39.9531 70.7344C39.5582 70.4815 39.1108 70.3551 38.6108 70.3551C38.108 70.3551 37.6591 70.4815 37.2642 70.7344C36.8693 70.9844 36.5568 71.3537 36.3267 71.8423C36.0994 72.3281 35.9858 72.9261 35.9858 73.6364C35.9858 74.3466 36.0994 74.946 36.3267 75.4347C36.5568 75.9205 36.8693 76.2898 37.2642 76.5426C37.6591 76.7926 38.108 76.9176 38.6108 76.9176C39.1108 76.9176 39.5582 76.7926 39.9531 76.5426C40.3509 76.2898 40.6634 75.9205 40.8906 75.4347C41.1207 74.946 41.2358 74.3466 41.2358 73.6364ZM49.6786 71.4545L47.305 78H45.9414L43.5636 71.4545H44.9315L46.5891 76.4915H46.6573L48.3107 71.4545H49.6786ZM53.4744 78.1321C52.8295 78.1321 52.2741 77.9943 51.8082 77.7188C51.3452 77.4403 50.9872 77.0497 50.7344 76.5469C50.4844 76.0412 50.3594 75.4489 50.3594 74.7699C50.3594 74.0994 50.4844 73.5085 50.7344 72.9972C50.9872 72.4858 51.3395 72.0866 51.7912 71.7997C52.2457 71.5128 52.777 71.3693 53.3849 71.3693C53.7543 71.3693 54.1122 71.4304 54.4588 71.5526C54.8054 71.6747 55.1165 71.8665 55.392 72.1278C55.6676 72.3892 55.8849 72.7287 56.044 73.1463C56.2031 73.5611 56.2827 74.0653 56.2827 74.6591V75.1108H51.0795V74.1562H55.0341C55.0341 73.821 54.9659 73.5241 54.8295 73.2656C54.6932 73.0043 54.5014 72.7983 54.2543 72.6477C54.0099 72.4972 53.723 72.4219 53.3935 72.4219C53.0355 72.4219 52.723 72.5099 52.456 72.6861C52.1918 72.8594 51.9872 73.0866 51.8423 73.3679C51.7003 73.6463 51.6293 73.9489 51.6293 74.2756V75.0213C51.6293 75.4588 51.706 75.831 51.8594 76.1378C52.0156 76.4446 52.233 76.679 52.5114 76.8409C52.7898 77 53.1151 77.0795 53.4872 77.0795C53.7287 77.0795 53.9489 77.0455 54.1477 76.9773C54.3466 76.9062 54.5185 76.8011 54.6634 76.6619C54.8082 76.5227 54.919 76.3509 54.9957 76.1463L56.2017 76.3636C56.1051 76.7187 55.9318 77.0298 55.6818 77.2969C55.4347 77.5611 55.1236 77.767 54.7486 77.9148C54.3764 78.0597 53.9517 78.1321 53.4744 78.1321ZM57.6964 78V71.4545H58.9279V72.4943H58.9961C59.1154 72.142 59.3256 71.8651 59.6268 71.6634C59.9308 71.4588 60.2745 71.3565 60.658 71.3565C60.7376 71.3565 60.8313 71.3594 60.9393 71.3651C61.0501 71.3707 61.1367 71.3778 61.1992 71.3864V72.6051C61.1481 72.5909 61.0572 72.5753 60.9265 72.5582C60.7958 72.5384 60.6651 72.5284 60.5344 72.5284C60.2333 72.5284 59.9648 72.5923 59.729 72.7202C59.4961 72.8452 59.3114 73.0199 59.1751 73.2443C59.0387 73.4659 58.9705 73.7187 58.9705 74.0028V78H57.6964ZM64.1481 78.1449C63.7333 78.1449 63.3583 78.0682 63.0231 77.9148C62.6879 77.7585 62.4222 77.5327 62.2262 77.2372C62.033 76.9418 61.9364 76.5795 61.9364 76.1506C61.9364 75.7812 62.0075 75.4773 62.1495 75.2386C62.2915 75 62.4833 74.8111 62.7248 74.6719C62.9663 74.5327 63.2362 74.4276 63.5344 74.3565C63.8327 74.2855 64.1367 74.2315 64.4464 74.1946C64.8384 74.1491 65.1566 74.1122 65.4009 74.0838C65.6452 74.0526 65.8228 74.0028 65.9336 73.9347C66.0444 73.8665 66.0998 73.7557 66.0998 73.6023V73.5724C66.0998 73.2003 65.9947 72.9119 65.7844 72.7074C65.5771 72.5028 65.2674 72.4006 64.8555 72.4006C64.4265 72.4006 64.0884 72.4957 63.8413 72.6861C63.5969 72.8736 63.4279 73.0824 63.3342 73.3125L62.1367 73.0398C62.2788 72.642 62.4862 72.321 62.7589 72.0767C63.0344 71.8295 63.3512 71.6506 63.7092 71.5398C64.0671 71.4261 64.4435 71.3693 64.8384 71.3693C65.0998 71.3693 65.3768 71.4006 65.6694 71.4631C65.9648 71.5227 66.2404 71.6335 66.4961 71.7955C66.7546 71.9574 66.9663 72.1889 67.131 72.4901C67.2958 72.7884 67.3782 73.1761 67.3782 73.6534V78H66.1339V77.1051H66.0827C66.0004 77.2699 65.8768 77.4318 65.712 77.5909C65.5472 77.75 65.3356 77.8821 65.0771 77.9872C64.8185 78.0923 64.5089 78.1449 64.1481 78.1449ZM64.4251 77.1222C64.7773 77.1222 65.0785 77.0526 65.3285 76.9134C65.5813 76.7741 65.7731 76.5923 65.9038 76.3679C66.0373 76.1406 66.104 75.8977 66.104 75.6392V74.7955C66.0586 74.8409 65.9705 74.8835 65.8398 74.9233C65.712 74.9602 65.5657 74.9929 65.4009 75.0213C65.2362 75.0469 65.0756 75.071 64.9194 75.0938C64.7631 75.1136 64.6325 75.1307 64.5273 75.1449C64.2802 75.1761 64.0543 75.2287 63.8498 75.3026C63.6481 75.3764 63.4862 75.483 63.364 75.6222C63.2447 75.7585 63.185 75.9403 63.185 76.1676C63.185 76.483 63.3015 76.7216 63.5344 76.8835C63.7674 77.0426 64.0643 77.1222 64.4251 77.1222ZM70.3494 69.2727V78H69.0753V69.2727H70.3494ZM73.3377 69.2727V78H72.0636V69.2727H73.3377Z" fill="#707070"/>
</svg>
