<svg width="39" height="39" viewBox="0 0 39 39" fill="none" xmlns="http://www.w3.org/2000/svg">
<circle cx="19.5" cy="19.5" r="19" fill="white" stroke="#E3E3E3"/>
<mask id="path-2-inside-1_503_4166" fill="white">
<path d="M0.163535 16.9799C-0.348697 20.9101 0.348876 24.9031 2.16331 28.4269C3.97775 31.9507 6.82289 34.8379 10.3197 36.7038C13.8164 38.5698 17.7988 39.3259 21.7361 38.8714C25.6734 38.4169 29.3788 36.7733 32.3585 34.1598C35.3382 31.5462 37.4507 28.0868 38.4146 24.2423C39.3785 20.3978 39.148 16.3509 37.7538 12.6407C36.3596 8.93051 33.8679 5.73327 30.6107 3.47496C27.3535 1.21665 23.4855 0.0044957 19.5221 1.24748e-05L19.5 19.5L0.163535 16.9799Z"/>
</mask>
<path d="M0.163535 16.9799C-0.348697 20.9101 0.348876 24.9031 2.16331 28.4269C3.97775 31.9507 6.82289 34.8379 10.3197 36.7038C13.8164 38.5698 17.7988 39.3259 21.7361 38.8714C25.6734 38.4169 29.3788 36.7733 32.3585 34.1598C35.3382 31.5462 37.4507 28.0868 38.4146 24.2423C39.3785 20.3978 39.148 16.3509 37.7538 12.6407C36.3596 8.93051 33.8679 5.73327 30.6107 3.47496C27.3535 1.21665 23.4855 0.0044957 19.5221 1.24748e-05L19.5 19.5L0.163535 16.9799Z" fill="white" stroke="#0FB301" stroke-width="4" mask="url(#path-2-inside-1_503_4166)"/>
<mask id="path-3-inside-2_503_4166" fill="white">
<path d="M1.62743 27.2988C3.03049 30.5142 5.275 33.2915 8.12439 35.3381C10.9738 37.3847 14.3225 38.6246 17.8176 38.9273C21.3127 39.23 24.8248 38.5841 27.9836 37.0579C31.1423 35.5316 33.8309 33.1815 35.7658 30.2551C37.7007 27.3288 38.8104 23.9347 38.9778 20.4305C39.1452 16.9263 38.3641 13.4418 36.717 10.3444C35.0698 7.2469 32.6175 4.65117 29.6186 2.83076C26.6197 1.01035 23.1852 0.0326807 19.6772 0.000804946L19.5 19.5L1.62743 27.2988Z"/>
</mask>
<path d="M1.62743 27.2988C3.03049 30.5142 5.275 33.2915 8.12439 35.3381C10.9738 37.3847 14.3225 38.6246 17.8176 38.9273C21.3127 39.23 24.8248 38.5841 27.9836 37.0579C31.1423 35.5316 33.8309 33.1815 35.7658 30.2551C37.7007 27.3288 38.8104 23.9347 38.9778 20.4305C39.1452 16.9263 38.3641 13.4418 36.717 10.3444C35.0698 7.2469 32.6175 4.65117 29.6186 2.83076C26.6197 1.01035 23.1852 0.0326807 19.6772 0.000804946L19.5 19.5L1.62743 27.2988Z" fill="white" stroke="#2384E5" stroke-width="4" mask="url(#path-3-inside-2_503_4166)"/>
<circle cx="19.5" cy="19.5" r="17.5" fill="white"/>
<path d="M9.76562 23.0114V21.7685L14.1655 14.8182H15.1449V16.6477H14.5234L11.3764 21.6293V21.7088H17.407V23.0114H9.76562ZM14.593 25V22.6335L14.603 22.0668V14.8182H16.0597V25H14.593ZM19.756 25.0945C19.4843 25.0945 19.2506 24.9983 19.055 24.8061C18.8595 24.6106 18.7617 24.3752 18.7617 24.1001C18.7617 23.8284 18.8595 23.5964 19.055 23.4041C19.2506 23.2086 19.4843 23.1108 19.756 23.1108C20.0278 23.1108 20.2615 23.2086 20.457 23.4041C20.6526 23.5964 20.7504 23.8284 20.7504 24.1001C20.7504 24.2824 20.704 24.4498 20.6112 24.6023C20.5217 24.7514 20.4023 24.8707 20.2532 24.9602C20.104 25.0497 19.9383 25.0945 19.756 25.0945ZM25.8972 25.1392C25.2144 25.1392 24.6046 25.0215 24.0676 24.7862C23.534 24.5509 23.1114 24.2244 22.7999 23.8068C22.4917 23.3859 22.3259 22.8987 22.3027 22.3452H23.8638C23.8837 22.6468 23.9848 22.9086 24.1671 23.1307C24.3527 23.3494 24.5946 23.5185 24.8929 23.6378C25.1912 23.7571 25.5227 23.8168 25.8873 23.8168C26.2883 23.8168 26.6429 23.7472 26.9512 23.608C27.2627 23.4687 27.5063 23.2749 27.682 23.0263C27.8577 22.7744 27.9455 22.4844 27.9455 22.1562C27.9455 21.8149 27.8577 21.5149 27.682 21.2564C27.5096 20.9946 27.2561 20.7891 26.9213 20.6399C26.5899 20.4908 26.1889 20.4162 25.7182 20.4162H24.8581V19.1634H25.7182C26.0961 19.1634 26.4275 19.0954 26.7125 18.9595C27.0009 18.8236 27.2263 18.6347 27.3887 18.3928C27.5511 18.1475 27.6323 17.8608 27.6323 17.5327C27.6323 17.2178 27.561 16.9444 27.4185 16.7124C27.2793 16.477 27.0804 16.2931 26.8219 16.1605C26.5667 16.0279 26.2651 15.9616 25.9171 15.9616C25.5856 15.9616 25.2757 16.023 24.9874 16.1456C24.7024 16.2649 24.4703 16.4373 24.2914 16.6626C24.1124 16.8847 24.0163 17.1515 24.003 17.4631H22.5165C22.5331 16.9129 22.6955 16.429 23.0037 16.0114C23.3153 15.5937 23.7263 15.2673 24.2367 15.032C24.7471 14.7966 25.3139 14.679 25.937 14.679C26.5899 14.679 27.1534 14.8066 27.6273 15.0618C28.1046 15.3137 28.4725 15.6501 28.731 16.071C28.9928 16.492 29.1221 16.9527 29.1188 17.4531C29.1221 18.0232 28.963 18.5071 28.6415 18.9048C28.3233 19.3026 27.8991 19.5694 27.3688 19.7053V19.7848C28.0449 19.8875 28.5686 20.156 28.9398 20.5902C29.3143 21.0244 29.4999 21.563 29.4966 22.206C29.4999 22.7661 29.3442 23.2682 29.0293 23.7124C28.7177 24.1565 28.2918 24.5062 27.7516 24.7614C27.2114 25.0133 26.5932 25.1392 25.8972 25.1392Z" fill="#707070"/>
</svg>
