<svg width="39" height="39" viewBox="0 0 39 39" fill="none" xmlns="http://www.w3.org/2000/svg">
<circle cx="19.5" cy="19.5" r="19" fill="white" stroke="#E3E3E3"/>
<mask id="path-2-inside-1_503_4193" fill="white">
<path d="M0.163535 16.9799C-0.348697 20.9101 0.348876 24.9031 2.16331 28.4269C3.97775 31.9507 6.82289 34.8379 10.3197 36.7038C13.8164 38.5698 17.7988 39.3259 21.7361 38.8714C25.6734 38.4169 29.3788 36.7733 32.3585 34.1598C35.3382 31.5462 37.4507 28.0868 38.4146 24.2423C39.3785 20.3978 39.148 16.3509 37.7538 12.6407C36.3596 8.93051 33.8679 5.73327 30.6107 3.47496C27.3535 1.21665 23.4855 0.0044957 19.5221 1.24748e-05L19.5 19.5L0.163535 16.9799Z"/>
</mask>
<path d="M0.163535 16.9799C-0.348697 20.9101 0.348876 24.9031 2.16331 28.4269C3.97775 31.9507 6.82289 34.8379 10.3197 36.7038C13.8164 38.5698 17.7988 39.3259 21.7361 38.8714C25.6734 38.4169 29.3788 36.7733 32.3585 34.1598C35.3382 31.5462 37.4507 28.0868 38.4146 24.2423C39.3785 20.3978 39.148 16.3509 37.7538 12.6407C36.3596 8.93051 33.8679 5.73327 30.6107 3.47496C27.3535 1.21665 23.4855 0.0044957 19.5221 1.24748e-05L19.5 19.5L0.163535 16.9799Z" fill="white" stroke="#0FB301" stroke-width="4" mask="url(#path-2-inside-1_503_4193)"/>
<mask id="path-3-inside-2_503_4193" fill="white">
<path d="M1.62743 27.2988C3.03049 30.5142 5.275 33.2915 8.12439 35.3381C10.9738 37.3847 14.3225 38.6246 17.8176 38.9273C21.3127 39.23 24.8248 38.5841 27.9836 37.0579C31.1423 35.5316 33.8309 33.1815 35.7658 30.2551C37.7007 27.3288 38.8104 23.9347 38.9778 20.4305C39.1452 16.9263 38.3641 13.4418 36.717 10.3444C35.0698 7.2469 32.6175 4.65117 29.6186 2.83076C26.6197 1.01035 23.1852 0.0326807 19.6772 0.000804946L19.5 19.5L1.62743 27.2988Z"/>
</mask>
<path d="M1.62743 27.2988C3.03049 30.5142 5.275 33.2915 8.12439 35.3381C10.9738 37.3847 14.3225 38.6246 17.8176 38.9273C21.3127 39.23 24.8248 38.5841 27.9836 37.0579C31.1423 35.5316 33.8309 33.1815 35.7658 30.2551C37.7007 27.3288 38.8104 23.9347 38.9778 20.4305C39.1452 16.9263 38.3641 13.4418 36.717 10.3444C35.0698 7.2469 32.6175 4.65117 29.6186 2.83076C26.6197 1.01035 23.1852 0.0326807 19.6772 0.000804946L19.5 19.5L1.62743 27.2988Z" fill="white" stroke="#2384E5" stroke-width="4" mask="url(#path-3-inside-2_503_4193)"/>
<circle cx="19.5" cy="19.5" r="17.5" fill="white"/>
<path d="M13.5241 25.1392C12.8414 25.1392 12.2315 25.0215 11.6946 24.7862C11.161 24.5509 10.7384 24.2244 10.4268 23.8068C10.1186 23.3859 9.95289 22.8987 9.92969 22.3452H11.4908C11.5107 22.6468 11.6117 22.9086 11.794 23.1307C11.9796 23.3494 12.2216 23.5185 12.5199 23.6378C12.8182 23.7571 13.1496 23.8168 13.5142 23.8168C13.9152 23.8168 14.2699 23.7472 14.5781 23.608C14.8897 23.4687 15.1333 23.2749 15.3089 23.0263C15.4846 22.7744 15.5724 22.4844 15.5724 22.1562C15.5724 21.8149 15.4846 21.5149 15.3089 21.2564C15.1366 20.9946 14.883 20.7891 14.5483 20.6399C14.2169 20.4908 13.8158 20.4162 13.3452 20.4162H12.4851V19.1634H13.3452C13.723 19.1634 14.0545 19.0954 14.3395 18.9595C14.6278 18.8236 14.8532 18.6347 15.0156 18.3928C15.178 18.1475 15.2592 17.8608 15.2592 17.5327C15.2592 17.2178 15.188 16.9444 15.0455 16.7124C14.9063 16.477 14.7074 16.2931 14.4489 16.1605C14.1937 16.0279 13.892 15.9616 13.544 15.9616C13.2126 15.9616 12.9027 16.023 12.6143 16.1456C12.3293 16.2649 12.0973 16.4373 11.9183 16.6626C11.7393 16.8847 11.6432 17.1515 11.63 17.4631H10.1435C10.16 16.9129 10.3224 16.429 10.6307 16.0114C10.9422 15.5937 11.3532 15.2673 11.8636 15.032C12.3741 14.7966 12.9408 14.679 13.5639 14.679C14.2169 14.679 14.7803 14.8066 15.2543 15.0618C15.7315 15.3137 16.0994 15.6501 16.358 16.071C16.6198 16.492 16.7491 16.9527 16.7457 17.4531C16.7491 18.0232 16.59 18.5071 16.2685 18.9048C15.9503 19.3026 15.526 19.5694 14.9957 19.7053V19.7848C15.6719 19.8875 16.1955 20.156 16.5668 20.5902C16.9413 21.0244 17.1269 21.563 17.1236 22.206C17.1269 22.7661 16.9711 23.2682 16.6562 23.7124C16.3447 24.1565 15.9188 24.5062 15.3786 24.7614C14.8383 25.0133 14.2202 25.1392 13.5241 25.1392ZM19.7013 25.0945C19.4296 25.0945 19.1959 24.9983 19.0004 24.8061C18.8048 24.6106 18.707 24.3752 18.707 24.1001C18.707 23.8284 18.8048 23.5964 19.0004 23.4041C19.1959 23.2086 19.4296 23.1108 19.7013 23.1108C19.9731 23.1108 20.2068 23.2086 20.4023 23.4041C20.5979 23.5964 20.6957 23.8284 20.6957 24.1001C20.6957 24.2824 20.6493 24.4498 20.5565 24.6023C20.467 24.7514 20.3477 24.8707 20.1985 24.9602C20.0494 25.0497 19.8836 25.0945 19.7013 25.0945ZM25.9295 14.679C26.3836 14.6823 26.831 14.7652 27.2718 14.9276C27.7127 15.09 28.1104 15.3551 28.465 15.723C28.823 16.0909 29.108 16.5881 29.3201 17.2145C29.5356 17.8376 29.6449 18.6132 29.6483 19.5412C29.6483 20.4328 29.5588 21.2266 29.3798 21.9226C29.2008 22.6153 28.944 23.2003 28.6092 23.6776C28.2778 24.1548 27.8751 24.5178 27.4011 24.7663C26.9271 25.0149 26.3935 25.1392 25.8002 25.1392C25.1937 25.1392 24.6551 25.0199 24.1845 24.7812C23.7138 24.5426 23.331 24.2128 23.036 23.7919C22.7411 23.3677 22.5571 22.8804 22.4842 22.3303H24.0005C24.1 22.7678 24.3021 23.1224 24.6071 23.3942C24.9153 23.6626 25.313 23.7969 25.8002 23.7969C26.546 23.7969 27.1277 23.4721 27.5453 22.8224C27.9629 22.1695 28.1734 21.258 28.1767 20.0881H28.0971C27.9248 20.3731 27.7093 20.6184 27.4508 20.8239C27.1956 21.0294 26.9089 21.1884 26.5907 21.3011C26.2726 21.4138 25.9328 21.4702 25.5716 21.4702C24.9849 21.4702 24.4513 21.326 23.9707 21.0376C23.4901 20.7493 23.1073 20.3532 22.8223 19.8494C22.5372 19.3456 22.3947 18.7706 22.3947 18.1243C22.3947 17.4813 22.5405 16.898 22.8322 16.3743C23.1272 15.8506 23.5382 15.4363 24.0652 15.1314C24.5955 14.8232 25.2169 14.6723 25.9295 14.679ZM25.9345 15.9716C25.5467 15.9716 25.197 16.0677 24.8855 16.2599C24.5772 16.4489 24.3336 16.7057 24.1547 17.0305C23.9757 17.352 23.8862 17.71 23.8862 18.1044C23.8862 18.4988 23.9724 18.8568 24.1447 19.1783C24.3204 19.4964 24.559 19.75 24.8606 19.9389C25.1655 20.1245 25.5136 20.2173 25.9047 20.2173C26.1963 20.2173 26.4681 20.161 26.72 20.0483C26.9719 19.9356 27.1923 19.7798 27.3812 19.581C27.5701 19.3788 27.7176 19.1501 27.8237 18.8949C27.9297 18.6397 27.9828 18.3712 27.9828 18.0895C27.9828 17.715 27.8933 17.367 27.7143 17.0455C27.5386 16.724 27.2967 16.4654 26.9885 16.2699C26.6802 16.071 26.3289 15.9716 25.9345 15.9716Z" fill="#707070"/>
</svg>
