<svg width="39" height="39" viewBox="0 0 39 39" fill="none" xmlns="http://www.w3.org/2000/svg">
<circle cx="19.5" cy="19.5" r="19" fill="white" stroke="#E3E3E3"/>
<mask id="path-2-inside-1_503_4184" fill="white">
<path d="M0.163535 16.9799C-0.348697 20.9101 0.348876 24.9031 2.16331 28.4269C3.97775 31.9507 6.82289 34.8379 10.3197 36.7038C13.8164 38.5698 17.7988 39.3259 21.7361 38.8714C25.6734 38.4169 29.3788 36.7733 32.3585 34.1598C35.3382 31.5462 37.4507 28.0868 38.4146 24.2423C39.3785 20.3978 39.148 16.3509 37.7538 12.6407C36.3596 8.93051 33.8679 5.73327 30.6107 3.47496C27.3535 1.21665 23.4855 0.0044957 19.5221 1.24748e-05L19.5 19.5L0.163535 16.9799Z"/>
</mask>
<path d="M0.163535 16.9799C-0.348697 20.9101 0.348876 24.9031 2.16331 28.4269C3.97775 31.9507 6.82289 34.8379 10.3197 36.7038C13.8164 38.5698 17.7988 39.3259 21.7361 38.8714C25.6734 38.4169 29.3788 36.7733 32.3585 34.1598C35.3382 31.5462 37.4507 28.0868 38.4146 24.2423C39.3785 20.3978 39.148 16.3509 37.7538 12.6407C36.3596 8.93051 33.8679 5.73327 30.6107 3.47496C27.3535 1.21665 23.4855 0.0044957 19.5221 1.24748e-05L19.5 19.5L0.163535 16.9799Z" fill="white" stroke="#0FB301" stroke-width="4" mask="url(#path-2-inside-1_503_4184)"/>
<mask id="path-3-inside-2_503_4184" fill="white">
<path d="M1.62743 27.2988C3.03049 30.5142 5.275 33.2915 8.12439 35.3381C10.9738 37.3847 14.3225 38.6246 17.8176 38.9273C21.3127 39.23 24.8248 38.5841 27.9836 37.0579C31.1423 35.5316 33.8309 33.1815 35.7658 30.2551C37.7007 27.3288 38.8104 23.9347 38.9778 20.4305C39.1452 16.9263 38.3641 13.4418 36.717 10.3444C35.0698 7.2469 32.6175 4.65117 29.6186 2.83076C26.6197 1.01035 23.1852 0.0326807 19.6772 0.000804946L19.5 19.5L1.62743 27.2988Z"/>
</mask>
<path d="M1.62743 27.2988C3.03049 30.5142 5.275 33.2915 8.12439 35.3381C10.9738 37.3847 14.3225 38.6246 17.8176 38.9273C21.3127 39.23 24.8248 38.5841 27.9836 37.0579C31.1423 35.5316 33.8309 33.1815 35.7658 30.2551C37.7007 27.3288 38.8104 23.9347 38.9778 20.4305C39.1452 16.9263 38.3641 13.4418 36.717 10.3444C35.0698 7.2469 32.6175 4.65117 29.6186 2.83076C26.6197 1.01035 23.1852 0.0326807 19.6772 0.000804946L19.5 19.5L1.62743 27.2988Z" fill="white" stroke="#2384E5" stroke-width="4" mask="url(#path-3-inside-2_503_4184)"/>
<circle cx="19.5" cy="19.5" r="17.5" fill="white"/>
<path d="M9.76562 23.0114V21.7685L14.1655 14.8182H15.1449V16.6477H14.5234L11.3764 21.6293V21.7088H17.407V23.0114H9.76562ZM14.593 25V22.6335L14.603 22.0668V14.8182H16.0597V25H14.593ZM19.756 25.0945C19.4843 25.0945 19.2506 24.9983 19.055 24.8061C18.8595 24.6106 18.7617 24.3752 18.7617 24.1001C18.7617 23.8284 18.8595 23.5964 19.055 23.4041C19.2506 23.2086 19.4843 23.1108 19.756 23.1108C20.0278 23.1108 20.2615 23.2086 20.457 23.4041C20.6526 23.5964 20.7504 23.8284 20.7504 24.1001C20.7504 24.2824 20.704 24.4498 20.6112 24.6023C20.5217 24.7514 20.4023 24.8707 20.2532 24.9602C20.104 25.0497 19.9383 25.0945 19.756 25.0945ZM22.5078 23.0114V21.7685L26.9077 14.8182H27.8871V16.6477H27.2656L24.1186 21.6293V21.7088H30.1491V23.0114H22.5078ZM27.3352 25V22.6335L27.3452 22.0668V14.8182H28.8018V25H27.3352Z" fill="#707070"/>
</svg>
