<svg width="18" height="18" viewBox="0 0 18 18" fill="none" xmlns="http://www.w3.org/2000/svg">
<path d="M8.99999 8.16699C8.77898 8.16699 8.56702 8.25479 8.41074 8.41107C8.25446 8.56735 8.16666 8.77931 8.16666 9.00033V12.3337C8.16666 12.5547 8.25446 12.7666 8.41074 12.9229C8.56702 13.0792 8.77898 13.167 8.99999 13.167C9.22101 13.167 9.43297 13.0792 9.58925 12.9229C9.74553 12.7666 9.83333 12.5547 9.83333 12.3337V9.00033C9.83333 8.77931 9.74553 8.56735 9.58925 8.41107C9.43297 8.25479 9.22101 8.16699 8.99999 8.16699ZM9.31666 4.90033C9.11378 4.81698 8.88621 4.81698 8.68333 4.90033C8.58103 4.93999 8.48758 4.99946 8.40833 5.07533C8.33472 5.15633 8.27553 5.24934 8.23333 5.35033C8.18668 5.44922 8.16384 5.55768 8.16666 5.66699C8.16603 5.77666 8.18705 5.88538 8.22852 5.98691C8.26999 6.08845 8.33109 6.18079 8.40833 6.25866C8.48933 6.33227 8.58234 6.39146 8.68333 6.43366C8.80958 6.48553 8.94663 6.50559 9.08245 6.49209C9.21827 6.47858 9.34869 6.43193 9.46225 6.35622C9.57582 6.28051 9.66905 6.17806 9.73375 6.05789C9.79845 5.93771 9.83265 5.80348 9.83333 5.66699C9.83026 5.44635 9.74394 5.23502 9.59166 5.07533C9.51241 4.99946 9.41895 4.93999 9.31666 4.90033ZM8.99999 0.666992C7.35182 0.666992 5.74065 1.15573 4.37024 2.07141C2.99983 2.98709 1.93173 4.28858 1.301 5.8113C0.670267 7.33401 0.505239 9.00957 0.826783 10.6261C1.14833 12.2426 1.942 13.7274 3.10744 14.8929C4.27287 16.0583 5.75773 16.852 7.37424 17.1735C8.99075 17.4951 10.6663 17.3301 12.189 16.6993C13.7117 16.0686 15.0132 15.0005 15.9289 13.6301C16.8446 12.2597 17.3333 10.6485 17.3333 9.00033C17.3333 7.90598 17.1178 6.82234 16.699 5.8113C16.2802 4.80025 15.6664 3.88159 14.8925 3.10777C14.1187 2.33395 13.2001 1.72012 12.189 1.30133C11.178 0.88254 10.0943 0.666992 8.99999 0.666992ZM8.99999 15.667C7.68145 15.667 6.39252 15.276 5.29619 14.5435C4.19986 13.8109 3.34538 12.7697 2.8408 11.5515C2.33621 10.3334 2.20419 8.99293 2.46143 7.69972C2.71866 6.40652 3.3536 5.21863 4.28595 4.28628C5.2183 3.35393 6.40619 2.71899 7.69939 2.46176C8.9926 2.20452 10.333 2.33654 11.5512 2.84113C12.7694 3.34571 13.8106 4.2002 14.5431 5.29652C15.2757 6.39285 15.6667 7.68178 15.6667 9.00033C15.6667 10.7684 14.9643 12.4641 13.714 13.7144C12.4638 14.9646 10.7681 15.667 8.99999 15.667Z" fill="#00B0FF"/>
</svg>
